<mxfile host="app.diagrams.net" modified="2023-06-08T07:16:07.227Z" agent="Mozilla/5.0 (Macintosh; Intel Mac OS X 10_15_7) AppleWebKit/537.36 (KHTML, like Gecko) Chrome/114.0.0.0 Safari/537.36" etag="LsI1sifLolkO0YOnQFpg" version="21.3.7" type="github">
  <diagram id="C5RBs43oDa-KdzZeNtuy" name="Page-1">
    <mxGraphModel dx="1129" dy="701" grid="1" gridSize="10" guides="1" tooltips="1" connect="1" arrows="1" fold="1" page="1" pageScale="1" pageWidth="827" pageHeight="1169" math="0" shadow="0">
      <root>
        <mxCell id="WIyWlLk6GJQsqaUBKTNV-0" />
        <mxCell id="WIyWlLk6GJQsqaUBKTNV-1" parent="WIyWlLk6GJQsqaUBKTNV-0" />
        <mxCell id="9tdN0gfASJVL4DcfJ6oB-5" value="" style="edgeStyle=orthogonalEdgeStyle;rounded=0;hachureGap=4;orthogonalLoop=1;jettySize=auto;html=1;fontFamily=Architects Daughter;fontSource=https%3A%2F%2Ffonts.googleapis.com%2Fcss%3Ffamily%3DArchitects%2BDaughter;fontSize=16;labelBackgroundColor=none;strokeColor=#DDA15E;fontColor=default;" edge="1" parent="WIyWlLk6GJQsqaUBKTNV-1" source="WIyWlLk6GJQsqaUBKTNV-12" target="9tdN0gfASJVL4DcfJ6oB-4">
          <mxGeometry relative="1" as="geometry" />
        </mxCell>
        <mxCell id="WIyWlLk6GJQsqaUBKTNV-12" value="Gaussian Descriptor&lt;br&gt;&lt;font style=&quot;font-size: 10px;&quot;&gt;(Radial and angular symmetry functions&amp;nbsp;&lt;br&gt;proposed by&lt;br&gt;Behler and Parrinello)&lt;/font&gt;" style="rounded=1;whiteSpace=wrap;html=1;fontSize=12;glass=0;strokeWidth=1;shadow=0;labelBackgroundColor=none;fillColor=#BC6C25;strokeColor=#DDA15E;fontColor=#FEFAE0;" parent="WIyWlLk6GJQsqaUBKTNV-1" vertex="1">
          <mxGeometry x="260" y="285" width="150" height="90" as="geometry" />
        </mxCell>
        <mxCell id="9tdN0gfASJVL4DcfJ6oB-9" value="" style="edgeStyle=orthogonalEdgeStyle;rounded=0;hachureGap=4;orthogonalLoop=1;jettySize=auto;html=1;fontFamily=Architects Daughter;fontSource=https%3A%2F%2Ffonts.googleapis.com%2Fcss%3Ffamily%3DArchitects%2BDaughter;fontSize=16;labelBackgroundColor=none;fontColor=default;fillColor=#647687;strokeColor=#314354;" edge="1" parent="WIyWlLk6GJQsqaUBKTNV-1" source="9tdN0gfASJVL4DcfJ6oB-4" target="9tdN0gfASJVL4DcfJ6oB-8">
          <mxGeometry relative="1" as="geometry" />
        </mxCell>
        <mxCell id="9tdN0gfASJVL4DcfJ6oB-4" value="&lt;font face=&quot;Helvetica&quot;&gt;AMP Train&lt;br&gt;&lt;font style=&quot;font-size: 9px;&quot;&gt;(Broyden-Fletcher-Goldfarb-Shanno algorithm)&lt;/font&gt;&lt;br&gt;&lt;/font&gt;" style="rounded=1;whiteSpace=wrap;html=1;fontSize=12;glass=0;strokeWidth=1;shadow=0;labelBackgroundColor=none;hachureGap=4;fontFamily=Architects Daughter;fontSource=https%3A%2F%2Ffonts.googleapis.com%2Fcss%3Ffamily%3DArchitects%2BDaughter;fillColor=#647687;strokeColor=#314354;fontColor=#ffffff;" vertex="1" parent="WIyWlLk6GJQsqaUBKTNV-1">
          <mxGeometry x="461" y="285" width="120" height="90" as="geometry" />
        </mxCell>
        <mxCell id="9tdN0gfASJVL4DcfJ6oB-15" value="" style="edgeStyle=orthogonalEdgeStyle;rounded=0;hachureGap=4;orthogonalLoop=1;jettySize=auto;html=1;fontFamily=Architects Daughter;fontSource=https%3A%2F%2Ffonts.googleapis.com%2Fcss%3Ffamily%3DArchitects%2BDaughter;fontSize=16;labelBackgroundColor=none;fontColor=default;fillColor=#647687;strokeColor=#314354;" edge="1" parent="WIyWlLk6GJQsqaUBKTNV-1" source="9tdN0gfASJVL4DcfJ6oB-8" target="9tdN0gfASJVL4DcfJ6oB-14">
          <mxGeometry relative="1" as="geometry" />
        </mxCell>
        <mxCell id="9tdN0gfASJVL4DcfJ6oB-16" value="&lt;font color=&quot;#000000&quot; style=&quot;font-size: 14px;&quot; face=&quot;Helvetica&quot;&gt;Yes&lt;/font&gt;" style="edgeLabel;html=1;align=center;verticalAlign=middle;resizable=0;points=[];fontSize=20;fontFamily=Architects Daughter;labelBackgroundColor=none;fontColor=#FEFAE0;" vertex="1" connectable="0" parent="9tdN0gfASJVL4DcfJ6oB-15">
          <mxGeometry x="0.1941" y="2" relative="1" as="geometry">
            <mxPoint x="-14" y="-8" as="offset" />
          </mxGeometry>
        </mxCell>
        <mxCell id="9tdN0gfASJVL4DcfJ6oB-24" style="edgeStyle=orthogonalEdgeStyle;rounded=0;hachureGap=4;orthogonalLoop=1;jettySize=auto;html=1;exitX=0.5;exitY=0;exitDx=0;exitDy=0;entryX=0.5;entryY=0;entryDx=0;entryDy=0;fontFamily=Architects Daughter;fontSource=https%3A%2F%2Ffonts.googleapis.com%2Fcss%3Ffamily%3DArchitects%2BDaughter;fontSize=16;labelBackgroundColor=none;fontColor=default;fillColor=#647687;strokeColor=#314354;" edge="1" parent="WIyWlLk6GJQsqaUBKTNV-1" source="9tdN0gfASJVL4DcfJ6oB-8" target="9tdN0gfASJVL4DcfJ6oB-4">
          <mxGeometry relative="1" as="geometry">
            <Array as="points">
              <mxPoint x="720" y="220" />
              <mxPoint x="521" y="220" />
            </Array>
          </mxGeometry>
        </mxCell>
        <mxCell id="9tdN0gfASJVL4DcfJ6oB-25" value="&lt;font color=&quot;#000000&quot; style=&quot;font-size: 14px;&quot; face=&quot;Helvetica&quot;&gt;No&lt;/font&gt;" style="edgeLabel;html=1;align=center;verticalAlign=middle;resizable=0;points=[];fontSize=20;fontFamily=Architects Daughter;labelBackgroundColor=none;fontColor=#FEFAE0;" vertex="1" connectable="0" parent="9tdN0gfASJVL4DcfJ6oB-24">
          <mxGeometry x="-0.8136" y="-2" relative="1" as="geometry">
            <mxPoint x="18" y="13" as="offset" />
          </mxGeometry>
        </mxCell>
        <mxCell id="9tdN0gfASJVL4DcfJ6oB-8" value="&lt;font face=&quot;Helvetica&quot;&gt;RMSE less than&lt;br&gt;1 meV atom&lt;sup&gt;-1&lt;/sup&gt;&lt;br&gt;&lt;/font&gt;" style="rounded=1;whiteSpace=wrap;html=1;fontSize=12;glass=0;strokeWidth=1;shadow=0;labelBackgroundColor=none;hachureGap=4;fontFamily=Architects Daughter;fontSource=https%3A%2F%2Ffonts.googleapis.com%2Fcss%3Ffamily%3DArchitects%2BDaughter;fillColor=#647687;strokeColor=#314354;fontColor=#ffffff;" vertex="1" parent="WIyWlLk6GJQsqaUBKTNV-1">
          <mxGeometry x="650" y="310" width="120" height="40" as="geometry" />
        </mxCell>
        <mxCell id="9tdN0gfASJVL4DcfJ6oB-14" value="&lt;font face=&quot;Helvetica&quot;&gt;Training&amp;nbsp;&lt;br&gt;Complete&lt;/font&gt;" style="shape=process;whiteSpace=wrap;html=1;backgroundOutline=1;fontFamily=Architects Daughter;rounded=1;glass=0;strokeWidth=1;shadow=0;labelBackgroundColor=none;hachureGap=4;fontSource=https%3A%2F%2Ffonts.googleapis.com%2Fcss%3Ffamily%3DArchitects%2BDaughter;fontSize=20;fillColor=#647687;strokeColor=#314354;fontColor=#ffffff;" vertex="1" parent="WIyWlLk6GJQsqaUBKTNV-1">
          <mxGeometry x="827" y="300" width="120" height="60" as="geometry" />
        </mxCell>
        <mxCell id="9tdN0gfASJVL4DcfJ6oB-17" value="" style="endArrow=none;dashed=1;html=1;dashPattern=1 3;strokeWidth=2;rounded=0;hachureGap=4;fontFamily=Architects Daughter;fontSource=https%3A%2F%2Ffonts.googleapis.com%2Fcss%3Ffamily%3DArchitects%2BDaughter;fontSize=16;labelBackgroundColor=none;strokeColor=#000000;fontColor=default;" edge="1" parent="WIyWlLk6GJQsqaUBKTNV-1">
          <mxGeometry width="50" height="50" relative="1" as="geometry">
            <mxPoint x="440" y="480" as="sourcePoint" />
            <mxPoint x="440" y="100" as="targetPoint" />
          </mxGeometry>
        </mxCell>
        <mxCell id="9tdN0gfASJVL4DcfJ6oB-18" value="&lt;font color=&quot;#000000&quot; style=&quot;background-color: rgb(255, 255, 255);&quot; face=&quot;Helvetica&quot;&gt;Parameters&lt;/font&gt;" style="text;html=1;strokeColor=none;fillColor=none;align=center;verticalAlign=middle;whiteSpace=wrap;rounded=0;fontSize=20;fontFamily=Architects Daughter;labelBackgroundColor=none;fontColor=#FEFAE0;" vertex="1" parent="WIyWlLk6GJQsqaUBKTNV-1">
          <mxGeometry x="140" y="110" width="200" height="40" as="geometry" />
        </mxCell>
        <mxCell id="9tdN0gfASJVL4DcfJ6oB-19" value="&lt;font color=&quot;#000000&quot; face=&quot;Helvetica&quot;&gt;Training&lt;/font&gt;" style="text;html=1;strokeColor=none;fillColor=none;align=center;verticalAlign=middle;whiteSpace=wrap;rounded=0;fontSize=20;fontFamily=Architects Daughter;labelBackgroundColor=none;fontColor=#FEFAE0;" vertex="1" parent="WIyWlLk6GJQsqaUBKTNV-1">
          <mxGeometry x="627" y="110" width="200" height="40" as="geometry" />
        </mxCell>
        <mxCell id="9tdN0gfASJVL4DcfJ6oB-32" style="edgeStyle=orthogonalEdgeStyle;rounded=0;hachureGap=4;orthogonalLoop=1;jettySize=auto;html=1;entryX=0;entryY=0.75;entryDx=0;entryDy=0;fontFamily=Architects Daughter;fontSource=https%3A%2F%2Ffonts.googleapis.com%2Fcss%3Ffamily%3DArchitects%2BDaughter;fontSize=16;labelBackgroundColor=none;strokeColor=#DDA15E;fontColor=default;" edge="1" parent="WIyWlLk6GJQsqaUBKTNV-1" source="9tdN0gfASJVL4DcfJ6oB-20" target="9tdN0gfASJVL4DcfJ6oB-4">
          <mxGeometry relative="1" as="geometry" />
        </mxCell>
        <mxCell id="9tdN0gfASJVL4DcfJ6oB-20" value="The surface segregation&lt;br&gt;Energy (E&lt;sub&gt;seg&lt;/sub&gt;) calculation&lt;br&gt;using&amp;nbsp;Kohn-Sham DFT&amp;nbsp;" style="rounded=1;whiteSpace=wrap;html=1;fontSize=12;glass=0;strokeWidth=1;shadow=0;labelBackgroundColor=none;fillColor=#BC6C25;strokeColor=#DDA15E;fontColor=#FEFAE0;" vertex="1" parent="WIyWlLk6GJQsqaUBKTNV-1">
          <mxGeometry x="260" y="400" width="150" height="60" as="geometry" />
        </mxCell>
        <mxCell id="9tdN0gfASJVL4DcfJ6oB-30" style="edgeStyle=orthogonalEdgeStyle;rounded=0;hachureGap=4;orthogonalLoop=1;jettySize=auto;html=1;entryX=0;entryY=0.25;entryDx=0;entryDy=0;fontFamily=Architects Daughter;fontSource=https%3A%2F%2Ffonts.googleapis.com%2Fcss%3Ffamily%3DArchitects%2BDaughter;fontSize=16;labelBackgroundColor=none;strokeColor=#DDA15E;fontColor=default;" edge="1" parent="WIyWlLk6GJQsqaUBKTNV-1" source="9tdN0gfASJVL4DcfJ6oB-21" target="9tdN0gfASJVL4DcfJ6oB-20">
          <mxGeometry relative="1" as="geometry" />
        </mxCell>
        <mxCell id="9tdN0gfASJVL4DcfJ6oB-21" value="Absorption Energy&lt;br&gt;calculation" style="rhombus;whiteSpace=wrap;html=1;shadow=0;fontFamily=Helvetica;fontSize=12;align=center;strokeWidth=1;spacing=6;spacingTop=-4;labelBackgroundColor=none;fillColor=#BC6C25;strokeColor=#DDA15E;fontColor=#FEFAE0;" vertex="1" parent="WIyWlLk6GJQsqaUBKTNV-1">
          <mxGeometry x="30" y="310" width="180" height="80" as="geometry" />
        </mxCell>
        <mxCell id="9tdN0gfASJVL4DcfJ6oB-29" style="edgeStyle=orthogonalEdgeStyle;rounded=0;hachureGap=4;orthogonalLoop=1;jettySize=auto;html=1;entryX=0;entryY=0.75;entryDx=0;entryDy=0;fontFamily=Architects Daughter;fontSource=https%3A%2F%2Ffonts.googleapis.com%2Fcss%3Ffamily%3DArchitects%2BDaughter;fontSize=16;labelBackgroundColor=none;strokeColor=#DDA15E;fontColor=default;" edge="1" parent="WIyWlLk6GJQsqaUBKTNV-1" source="9tdN0gfASJVL4DcfJ6oB-26" target="9tdN0gfASJVL4DcfJ6oB-20">
          <mxGeometry relative="1" as="geometry" />
        </mxCell>
        <mxCell id="9tdN0gfASJVL4DcfJ6oB-26" value="Reaction Free&lt;br&gt;&amp;nbsp;Energy in&lt;br&gt;ORR calcuation" style="rhombus;whiteSpace=wrap;html=1;shadow=0;fontFamily=Helvetica;fontSize=12;align=center;strokeWidth=1;spacing=6;spacingTop=-4;labelBackgroundColor=none;fillColor=#BC6C25;strokeColor=#DDA15E;fontColor=#FEFAE0;" vertex="1" parent="WIyWlLk6GJQsqaUBKTNV-1">
          <mxGeometry x="30" y="404" width="180" height="80" as="geometry" />
        </mxCell>
        <mxCell id="9tdN0gfASJVL4DcfJ6oB-31" style="edgeStyle=orthogonalEdgeStyle;rounded=0;hachureGap=4;orthogonalLoop=1;jettySize=auto;html=1;entryX=0;entryY=0.25;entryDx=0;entryDy=0;fontFamily=Architects Daughter;fontSource=https%3A%2F%2Ffonts.googleapis.com%2Fcss%3Ffamily%3DArchitects%2BDaughter;fontSize=16;labelBackgroundColor=none;strokeColor=#DDA15E;fontColor=default;" edge="1" parent="WIyWlLk6GJQsqaUBKTNV-1" source="9tdN0gfASJVL4DcfJ6oB-28" target="9tdN0gfASJVL4DcfJ6oB-4">
          <mxGeometry relative="1" as="geometry" />
        </mxCell>
        <mxCell id="9tdN0gfASJVL4DcfJ6oB-28" value="Hyperbolic tangent&lt;br&gt;Activation function&lt;br&gt;between the hidden&lt;br&gt;layers" style="rounded=1;whiteSpace=wrap;html=1;fontSize=12;glass=0;strokeWidth=1;shadow=0;labelBackgroundColor=none;fillColor=#BC6C25;strokeColor=#DDA15E;fontColor=#FEFAE0;" vertex="1" parent="WIyWlLk6GJQsqaUBKTNV-1">
          <mxGeometry x="260" y="180" width="150" height="70" as="geometry" />
        </mxCell>
      </root>
    </mxGraphModel>
  </diagram>
</mxfile>
